ffmpeg started on 2025-05-13 at 10:13:45
Report written to "D:\Convert\FFMetrics\reports\ssim_report-6.txt"
Log level: 32
Command line:
ffmpeg -hide_banner -nostdin -i "G:\\\xc0\xed\xe8\xec\xe5\\\xce\xed\xe3\xee\xe8\xed\xe3\xe8\\!_35_\xcb\xe5\xf2\xee_2024\\DreamCast-1\\\xd3 \xec\xee\xe5\xe9 \xe6\xe5\xed\xfb \xed\xe5\xf2 \xfd\xec\xee\xf6\xe8\xe9\\[DC] Boku no Tsuma wa Kanjou ga Nai - 05_Telegram_HEVC.mkv" -i "G:\\\xc0\xed\xe8\xec\xe5\\\xce\xed\xe3\xee\xe8\xed\xe3\xe8\\!_35_\xcb\xe5\xf2\xee_2024\\DreamCast-1\\\xd3 \xec\xee\xe5\xe9 \xe6\xe5\xed\xfb \xed\xe5\xf2 \xfd\xec\xee\xf6\xe8\xe9\\[DC] Boku no Tsuma wa Kanjou ga Nai - 05_Telegram.mp4" -lavfi "[0:v]settb=AVTB,setpts=PTS-STARTPTS,format=pix_fmts=yuv420p10,fps=24000/1001,scale=1920:1080:flags=bicubic[main];[1:v]settb=AVTB,setpts=PTS-STARTPTS,format=pix_fmts=yuv420p,fps=24000/1001,scale=1920:1080:flags=bicubic[ref];[main][ref]ssim=eof_action=endall:stats_file='D\\:/Convert/FFMetrics/logs/ssim_logfile-6.txt'" -f null -
Input #0, matroska,webm, from 'G:\Аниме\Онгоинги\!_35_Лето_2024\DreamCast-1\У моей жены нет эмоций\[DC] Boku no Tsuma wa Kanjou ga Nai - 05_Telegram_HEVC.mkv':
  Metadata:
    COMPATIBLE_BRANDS: isomiso2avc1mp41
    MAJOR_BRAND     : isom
    MINOR_VERSION   : 512
    ENCODER         : Lavf61.7.100
  Duration: 00:23:46.65, start: -0.021000, bitrate: 1086 kb/s
  Stream #0:0: Video: hevc (Main 10), yuv420p10le(tv, bt709, progressive), 1920x1080 [SAR 1:1 DAR 16:9], 23.98 fps, 23.98 tbr, 1k tbn (default)
      Metadata:
        HANDLER_NAME    : VideoHandler
        VENDOR_ID       : [0][0][0][0]
        ENCODER         : Lavc61.19.100 libx265
        BPS             : 888569
        DURATION        : 00:23:46.549708333
        NUMBER_OF_FRAMES: 34203
        NUMBER_OF_BYTES : 158448499
        _STATISTICS_WRITING_APP: mkvpropedit v66.0.0 ('Josie') 64-bit
        _STATISTICS_WRITING_DATE_UTC: 2025-05-11 12:37:12
        _STATISTICS_TAGS: BPS DURATION NUMBER_OF_FRAMES NUMBER_OF_BYTES
  Stream #0:1: Audio: aac (LC), 48000 Hz, stereo, fltp (default)
      Metadata:
        HANDLER_NAME    : SoundHandler
        VENDOR_ID       : [0][0][0][0]
        ENCODER         : Lavc61.19.100 aac
        BPS             : 193584
        DURATION        : 00:23:46.645000000
        NUMBER_OF_FRAMES: 66875
        NUMBER_OF_BYTES : 34521978
        _STATISTICS_WRITING_APP: mkvpropedit v66.0.0 ('Josie') 64-bit
        _STATISTICS_WRITING_DATE_UTC: 2025-05-11 12:37:12
        _STATISTICS_TAGS: BPS DURATION NUMBER_OF_FRAMES NUMBER_OF_BYTES
Input #1, mov,mp4,m4a,3gp,3g2,mj2, from 'G:\Аниме\Онгоинги\!_35_Лето_2024\DreamCast-1\У моей жены нет эмоций\[DC] Boku no Tsuma wa Kanjou ga Nai - 05_Telegram.mp4':
  Metadata:
    major_brand     : isom
    minor_version   : 512
    compatible_brands: isomiso2avc1mp41
    encoder         : Lavf61.1.100
  Duration: 00:23:46.62, start: 0.000000, bitrate: 3862 kb/s
  Stream #1:0[0x1](und): Video: h264 (High) (avc1 / 0x31637661), yuv420p(tv, bt709, progressive), 1920x1080 [SAR 1:1 DAR 16:9], 3714 kb/s, 23.98 fps, 23.98 tbr, 24k tbn (default)
      Metadata:
        handler_name    : VideoHandler
        vendor_id       : [0][0][0][0]
        encoder         : Lavc61.3.100 h264_qsv
  Stream #1:1[0x2](und): Audio: aac (HE-AACv2) (mp4a / 0x6134706D), 48000 Hz, stereo, fltp, 144 kb/s (default)
      Metadata:
        handler_name    : SoundHandler
        vendor_id       : [0][0][0][0]
Stream mapping:
  Stream #0:0 (hevc) -> settb:default
  Stream #1:0 (h264) -> settb:default
  ssim:default -> Stream #0:0 (wrapped_avframe)
  Stream #0:1 -> #0:1 (aac (native) -> pcm_s16le (native))
Output #0, null, to 'pipe:':
  Metadata:
    COMPATIBLE_BRANDS: isomiso2avc1mp41
    MAJOR_BRAND     : isom
    MINOR_VERSION   : 512
    encoder         : Lavf61.7.100
  Stream #0:0: Video: wrapped_avframe, yuv420p10le(tv, bt709, progressive), 1920x1080 [SAR 1:1 DAR 16:9], q=2-31, 200 kb/s, 23.98 fps, 23.98 tbn
      Metadata:
        encoder         : Lavc61.19.100 wrapped_avframe
  Stream #0:1: Audio: pcm_s16le, 48000 Hz, stereo, s16, 1536 kb/s (default)
      Metadata:
        HANDLER_NAME    : SoundHandler
        VENDOR_ID       : [0][0][0][0]
        _STATISTICS_TAGS: BPS DURATION NUMBER_OF_FRAMES NUMBER_OF_BYTES
        BPS             : 193584
        DURATION        : 00:23:46.645000000
        NUMBER_OF_FRAMES: 66875
        NUMBER_OF_BYTES : 34521978
        _STATISTICS_WRITING_APP: mkvpropedit v66.0.0 ('Josie') 64-bit
        _STATISTICS_WRITING_DATE_UTC: 2025-05-11 12:37:12
        encoder         : Lavc61.19.100 pcm_s16le
frame=  171 fps=0.0 q=-0.0 size=N/A time=00:00:07.13 bitrate=N/A speed=14.1x    frame=  405 fps=392 q=-0.0 size=N/A time=00:00:16.89 bitrate=N/A speed=16.4x    frame=  667 fps=430 q=-0.0 size=N/A time=00:00:27.81 bitrate=N/A speed=17.9x    frame=  915 fps=441 q=-0.0 size=N/A time=00:00:38.16 bitrate=N/A speed=18.4x    frame= 1176 fps=455 q=-0.0 size=N/A time=00:00:49.04 bitrate=N/A speed=  19x    frame= 1409 fps=453 q=-0.0 size=N/A time=00:00:58.76 bitrate=N/A speed=18.9x    frame= 1644 fps=455 q=-0.0 size=N/A time=00:01:08.56 bitrate=N/A speed=  19x    frame= 1897 fps=458 q=-0.0 size=N/A time=00:01:19.12 bitrate=N/A speed=19.1x    frame= 2149 fps=461 q=-0.0 size=N/A time=00:01:29.63 bitrate=N/A speed=19.2x    frame= 2347 fps=454 q=-0.0 size=N/A time=00:01:37.88 bitrate=N/A speed=18.9x    frame= 2560 fps=451 q=-0.0 size=N/A time=00:01:46.77 bitrate=N/A speed=18.8x    frame= 2767 fps=446 q=-0.0 size=N/A time=00:01:55.40 bitrate=N/A speed=18.6x    frame= 2971 fps=443 q=-0.0 size=N/A time=00:02:03.91 bitrate=N/A speed=18.5x    frame= 3134 fps=433 q=-0.0 size=N/A time=00:02:10.71 bitrate=N/A speed=18.1x    frame= 3308 fps=427 q=-0.0 size=N/A time=00:02:17.97 bitrate=N/A speed=17.8x    frame= 3509 fps=425 q=-0.0 size=N/A time=00:02:26.35 bitrate=N/A speed=17.7x    frame= 3718 fps=423 q=-0.0 size=N/A time=00:02:35.07 bitrate=N/A speed=17.7x    frame= 3927 fps=423 q=-0.0 size=N/A time=00:02:43.78 bitrate=N/A speed=17.6x    frame= 4112 fps=419 q=-0.0 size=N/A time=00:02:51.50 bitrate=N/A speed=17.5x    frame= 4322 fps=418 q=-0.0 size=N/A time=00:03:00.26 bitrate=N/A speed=17.5x    frame= 4573 fps=422 q=-0.0 size=N/A time=00:03:10.73 bitrate=N/A speed=17.6x    frame= 4832 fps=425 q=-0.0 size=N/A time=00:03:21.53 bitrate=N/A speed=17.7x    frame= 5070 fps=427 q=-0.0 size=N/A time=00:03:31.46 bitrate=N/A speed=17.8x    frame= 5324 fps=430 q=-0.0 size=N/A time=00:03:42.05 bitrate=N/A speed=17.9x    frame= 5541 fps=430 q=-0.0 size=N/A time=00:03:51.10 bitrate=N/A speed=17.9x    frame= 5799 fps=432 q=-0.0 size=N/A time=00:04:01.86 bitrate=N/A speed=  18x    frame= 6026 fps=433 q=-0.0 size=N/A time=00:04:11.33 bitrate=N/A speed=  18x    frame= 6245 fps=432 q=-0.0 size=N/A time=00:04:20.46 bitrate=N/A speed=  18x    frame= 6497 fps=434 q=-0.0 size=N/A time=00:04:30.97 bitrate=N/A speed=18.1x    frame= 6734 fps=435 q=-0.0 size=N/A time=00:04:40.86 bitrate=N/A speed=18.1x    frame= 6947 fps=434 q=-0.0 size=N/A time=00:04:49.74 bitrate=N/A speed=18.1x    frame= 7207 fps=436 q=-0.0 size=N/A time=00:05:00.59 bitrate=N/A speed=18.2x    frame= 7456 fps=438 q=-0.0 size=N/A time=00:05:10.97 bitrate=N/A speed=18.3x    frame= 7714 fps=440 q=-0.0 size=N/A time=00:05:21.73 bitrate=N/A speed=18.3x    frame= 7974 fps=441 q=-0.0 size=N/A time=00:05:32.58 bitrate=N/A speed=18.4x    frame= 8229 fps=443 q=-0.0 size=N/A time=00:05:43.21 bitrate=N/A speed=18.5x    frame= 8479 fps=444 q=-0.0 size=N/A time=00:05:53.64 bitrate=N/A speed=18.5x    frame= 8734 fps=445 q=-0.0 size=N/A time=00:06:04.28 bitrate=N/A speed=18.6x    frame= 8988 fps=446 q=-0.0 size=N/A time=00:06:14.87 bitrate=N/A speed=18.6x    frame= 9251 fps=448 q=-0.0 size=N/A time=00:06:25.84 bitrate=N/A speed=18.7x    frame= 9498 fps=449 q=-0.0 size=N/A time=00:06:36.14 bitrate=N/A speed=18.7x    frame= 9754 fps=450 q=-0.0 size=N/A time=00:06:46.82 bitrate=N/A speed=18.8x    frame= 9996 fps=450 q=-0.0 size=N/A time=00:06:56.91 bitrate=N/A speed=18.8x    frame=10255 fps=451 q=-0.0 size=N/A time=00:07:07.71 bitrate=N/A speed=18.8x    frame=10515 fps=453 q=-0.0 size=N/A time=00:07:18.56 bitrate=N/A speed=18.9x    frame=10770 fps=453 q=-0.0 size=N/A time=00:07:29.19 bitrate=N/A speed=18.9x    frame=11011 fps=454 q=-0.0 size=N/A time=00:07:39.25 bitrate=N/A speed=18.9x    frame=11277 fps=455 q=-0.0 size=N/A time=00:07:50.34 bitrate=N/A speed=  19x    frame=11527 fps=456 q=-0.0 size=N/A time=00:08:00.77 bitrate=N/A speed=  19x    frame=11785 fps=457 q=-0.0 size=N/A time=00:08:11.53 bitrate=N/A speed=  19x    frame=12056 fps=458 q=-0.0 size=N/A time=00:08:22.83 bitrate=N/A speed=19.1x    frame=12295 fps=458 q=-0.0 size=N/A time=00:08:32.80 bitrate=N/A speed=19.1x    frame=12566 fps=459 q=-0.0 size=N/A time=00:08:44.10 bitrate=N/A speed=19.2x    frame=12823 fps=460 q=-0.0 size=N/A time=00:08:54.82 bitrate=N/A speed=19.2x    frame=13066 fps=460 q=-0.0 size=N/A time=00:09:04.96 bitrate=N/A speed=19.2x    frame=13325 fps=461 q=-0.0 size=N/A time=00:09:15.76 bitrate=N/A speed=19.2x    frame=13549 fps=460 q=-0.0 size=N/A time=00:09:25.10 bitrate=N/A speed=19.2x    frame=13816 fps=462 q=-0.0 size=N/A time=00:09:36.24 bitrate=N/A speed=19.2x    frame=14002 fps=460 q=-0.0 size=N/A time=00:09:44.00 bitrate=N/A speed=19.2x    frame=14201 fps=459 q=-0.0 size=N/A time=00:09:52.30 bitrate=N/A speed=19.1x    frame=14434 fps=458 q=-0.0 size=N/A time=00:10:02.01 bitrate=N/A speed=19.1x    frame=14699 fps=459 q=-0.0 size=N/A time=00:10:13.07 bitrate=N/A speed=19.2x    frame=14954 fps=460 q=-0.0 size=N/A time=00:10:23.70 bitrate=N/A speed=19.2x    frame=15192 fps=460 q=-0.0 size=N/A time=00:10:33.63 bitrate=N/A speed=19.2x    frame=15448 fps=461 q=-0.0 size=N/A time=00:10:44.31 bitrate=N/A speed=19.2x    frame=15680 fps=460 q=-0.0 size=N/A time=00:10:53.98 bitrate=N/A speed=19.2x    frame=15929 fps=461 q=-0.0 size=N/A time=00:11:04.37 bitrate=N/A speed=19.2x    frame=16162 fps=461 q=-0.0 size=N/A time=00:11:14.09 bitrate=N/A speed=19.2x    frame=16411 fps=461 q=-0.0 size=N/A time=00:11:24.47 bitrate=N/A speed=19.2x    frame=16667 fps=461 q=-0.0 size=N/A time=00:11:35.15 bitrate=N/A speed=19.2x    frame=16913 fps=462 q=-0.0 size=N/A time=00:11:45.41 bitrate=N/A speed=19.3x    frame=17146 fps=461 q=-0.0 size=N/A time=00:11:55.13 bitrate=N/A speed=19.2x    frame=17385 fps=462 q=-0.0 size=N/A time=00:12:05.09 bitrate=N/A speed=19.3x    frame=17642 fps=462 q=-0.0 size=N/A time=00:12:15.81 bitrate=N/A speed=19.3x    frame=17856 fps=461 q=-0.0 size=N/A time=00:12:24.74 bitrate=N/A speed=19.2x    frame=18115 fps=462 q=-0.0 size=N/A time=00:12:35.54 bitrate=N/A speed=19.3x    frame=18369 fps=462 q=-0.0 size=N/A time=00:12:46.14 bitrate=N/A speed=19.3x    frame=18637 fps=463 q=-0.0 size=N/A time=00:12:57.31 bitrate=N/A speed=19.3x    frame=18868 fps=463 q=-0.0 size=N/A time=00:13:06.95 bitrate=N/A speed=19.3x    frame=19050 fps=461 q=-0.0 size=N/A time=00:13:14.54 bitrate=N/A speed=19.2x    frame=19304 fps=462 q=-0.0 size=N/A time=00:13:25.13 bitrate=N/A speed=19.3x    frame=19532 fps=461 q=-0.0 size=N/A time=00:13:34.64 bitrate=N/A speed=19.2x    frame=19753 fps=461 q=-0.0 size=N/A time=00:13:43.86 bitrate=N/A speed=19.2x    frame=20004 fps=461 q=-0.0 size=N/A time=00:13:54.33 bitrate=N/A speed=19.2x    frame=20268 fps=462 q=-0.0 size=N/A time=00:14:05.34 bitrate=N/A speed=19.3x    frame=20514 fps=462 q=-0.0 size=N/A time=00:14:15.60 bitrate=N/A speed=19.3x    frame=20764 fps=462 q=-0.0 size=N/A time=00:14:26.03 bitrate=N/A speed=19.3x    frame=20976 fps=462 q=-0.0 size=N/A time=00:14:34.87 bitrate=N/A speed=19.3x    frame=21231 fps=462 q=-0.0 size=N/A time=00:14:45.50 bitrate=N/A speed=19.3x    frame=21470 fps=462 q=-0.0 size=N/A time=00:14:55.47 bitrate=N/A speed=19.3x    frame=21724 fps=463 q=-0.0 size=N/A time=00:15:06.07 bitrate=N/A speed=19.3x    frame=21922 fps=462 q=-0.0 size=N/A time=00:15:14.33 bitrate=N/A speed=19.3x    frame=22153 fps=462 q=-0.0 size=N/A time=00:15:23.96 bitrate=N/A speed=19.3x    frame=22405 fps=462 q=-0.0 size=N/A time=00:15:34.47 bitrate=N/A speed=19.3x    frame=22654 fps=462 q=-0.0 size=N/A time=00:15:44.86 bitrate=N/A speed=19.3x    frame=22888 fps=462 q=-0.0 size=N/A time=00:15:54.62 bitrate=N/A speed=19.3x    frame=23140 fps=462 q=-0.0 size=N/A time=00:16:05.13 bitrate=N/A speed=19.3x    frame=23389 fps=462 q=-0.0 size=N/A time=00:16:15.51 bitrate=N/A speed=19.3x    frame=23592 fps=462 q=-0.0 size=N/A time=00:16:23.98 bitrate=N/A speed=19.3x    frame=23830 fps=462 q=-0.0 size=N/A time=00:16:33.90 bitrate=N/A speed=19.3x    frame=24071 fps=462 q=-0.0 size=N/A time=00:16:43.96 bitrate=N/A speed=19.3x    frame=24310 fps=462 q=-0.0 size=N/A time=00:16:53.92 bitrate=N/A speed=19.3x    frame=24572 fps=462 q=-0.0 size=N/A time=00:17:04.85 bitrate=N/A speed=19.3x    frame=24807 fps=462 q=-0.0 size=N/A time=00:17:14.65 bitrate=N/A speed=19.3x    frame=25002 fps=461 q=-0.0 size=N/A time=00:17:22.79 bitrate=N/A speed=19.2x    frame=25193 fps=461 q=-0.0 size=N/A time=00:17:30.75 bitrate=N/A speed=19.2x    frame=25405 fps=460 q=-0.0 size=N/A time=00:17:39.60 bitrate=N/A speed=19.2x    frame=25621 fps=460 q=-0.0 size=N/A time=00:17:48.60 bitrate=N/A speed=19.2x    frame=25860 fps=460 q=-0.0 size=N/A time=00:17:58.57 bitrate=N/A speed=19.2x    frame=26070 fps=459 q=-0.0 size=N/A time=00:18:07.33 bitrate=N/A speed=19.2x    frame=26297 fps=459 q=-0.0 size=N/A time=00:18:16.80 bitrate=N/A speed=19.1x    frame=26559 fps=460 q=-0.0 size=N/A time=00:18:27.73 bitrate=N/A speed=19.2x    frame=26814 fps=460 q=-0.0 size=N/A time=00:18:38.36 bitrate=N/A speed=19.2x    frame=27033 fps=460 q=-0.0 size=N/A time=00:18:47.50 bitrate=N/A speed=19.2x    frame=27267 fps=460 q=-0.0 size=N/A time=00:18:57.30 bitrate=N/A speed=19.2x    frame=27524 fps=460 q=-0.0 size=N/A time=00:19:07.98 bitrate=N/A speed=19.2x    frame=27761 fps=460 q=-0.0 size=N/A time=00:19:17.86 bitrate=N/A speed=19.2x    frame=28031 fps=460 q=-0.0 size=N/A time=00:19:29.12 bitrate=N/A speed=19.2x    frame=28253 fps=460 q=-0.0 size=N/A time=00:19:38.38 bitrate=N/A speed=19.2x    frame=28469 fps=460 q=-0.0 size=N/A time=00:19:47.39 bitrate=N/A speed=19.2x    frame=28696 fps=460 q=-0.0 size=N/A time=00:19:56.86 bitrate=N/A speed=19.2x    frame=28955 fps=460 q=-0.0 size=N/A time=00:20:07.66 bitrate=N/A speed=19.2x    frame=29202 fps=460 q=-0.0 size=N/A time=00:20:17.96 bitrate=N/A speed=19.2x    frame=29437 fps=460 q=-0.0 size=N/A time=00:20:27.76 bitrate=N/A speed=19.2x    frame=29697 fps=460 q=-0.0 size=N/A time=00:20:38.61 bitrate=N/A speed=19.2x    frame=29947 fps=461 q=-0.0 size=N/A time=00:20:49.03 bitrate=N/A speed=19.2x    frame=30190 fps=461 q=-0.0 size=N/A time=00:20:59.17 bitrate=N/A speed=19.2x    frame=30414 fps=461 q=-0.0 size=N/A time=00:21:08.51 bitrate=N/A speed=19.2x    frame=30678 fps=461 q=-0.0 size=N/A time=00:21:19.52 bitrate=N/A speed=19.2x    frame=30918 fps=461 q=-0.0 size=N/A time=00:21:29.53 bitrate=N/A speed=19.2x    frame=31164 fps=461 q=-0.0 size=N/A time=00:21:39.79 bitrate=N/A speed=19.2x    frame=31421 fps=461 q=-0.0 size=N/A time=00:21:50.51 bitrate=N/A speed=19.2x    frame=31652 fps=461 q=-0.0 size=N/A time=00:22:00.15 bitrate=N/A speed=19.2x    frame=31884 fps=461 q=-0.0 size=N/A time=00:22:09.82 bitrate=N/A speed=19.2x    frame=32103 fps=461 q=-0.0 size=N/A time=00:22:18.96 bitrate=N/A speed=19.2x    frame=32307 fps=460 q=-0.0 size=N/A time=00:22:27.51 bitrate=N/A speed=19.2x    frame=32528 fps=460 q=-0.0 size=N/A time=00:22:36.68 bitrate=N/A speed=19.2x    frame=32710 fps=459 q=-0.0 size=N/A time=00:22:44.27 bitrate=N/A speed=19.2x    frame=32890 fps=459 q=-0.0 size=N/A time=00:22:51.78 bitrate=N/A speed=19.1x    frame=33096 fps=458 q=-0.0 size=N/A time=00:23:00.37 bitrate=N/A speed=19.1x    frame=33280 fps=457 q=-0.0 size=N/A time=00:23:08.05 bitrate=N/A speed=19.1x    frame=33462 fps=457 q=-0.0 size=N/A time=00:23:15.64 bitrate=N/A speed=19.1x    frame=33663 fps=456 q=-0.0 size=N/A time=00:23:24.02 bitrate=N/A speed=  19x    frame=33865 fps=456 q=-0.0 size=N/A time=00:23:32.45 bitrate=N/A speed=  19x    frame=34081 fps=456 q=-0.0 size=N/A time=00:23:41.46 bitrate=N/A speed=  19x    [Parsed_ssim_10 @ 000002d965939480] SSIM Y:0.994757 (22.804520) U:0.995279 (23.259314) V:0.995444 (23.414079) All:0.994959 (22.974556)
[out#0/null @ 000002d958bb2d40] video:14697KiB audio:267500KiB subtitle:0KiB other streams:0KiB global headers:0KiB muxing overhead: unknown
frame=34203 fps=455 q=-0.0 Lsize=N/A time=00:23:46.55 bitrate=N/A speed=  19x    
